<?xml version="1.0" encoding="iso-8859-1"?>
<!-- Uploaded to: SVG Repo, www.svgrepo.com, Generator: SVG Repo Mixer Tools -->
<svg fill="#000000" height="800px" width="800px" version="1.1" id="Layer_1" xmlns="http://www.w3.org/2000/svg" xmlns:xlink="http://www.w3.org/1999/xlink" 
	 viewBox="0 0 512 512" xml:space="preserve">
<g>
	<g>
		<g>
			<path d="M170.667,0h-96C68.779,0,64,4.779,64,10.667v74.731c0,23.488,15.744,44.544,38.272,51.157l68.395,20.117V0z"/>
			<path d="M437.333,0h-96v156.693l68.395-20.117C432.277,129.941,448,108.907,448,85.419V10.688C448,4.779,443.221,0,437.333,0z"/>
			<path d="M290.069,217.408c5.312-7.125,8.597-15.851,8.597-25.408c0-8.725-2.645-16.832-7.168-23.595
				c9.579-1.408,19.115-3.2,28.501-5.696V0H192v162.709c9.387,2.496,18.923,4.288,28.501,5.696
				c-4.501,6.763-7.168,14.869-7.168,23.595c0,9.557,3.264,18.283,8.597,25.408c-65.963,15.488-115.264,74.645-115.264,145.259
				C106.667,445.013,173.653,512,256,512s149.333-66.987,149.333-149.333C405.333,292.053,356.032,232.896,290.069,217.408z
				 M347.797,339.157l-45.803,34.859l18.56,60.16c1.365,4.459-0.32,9.301-4.16,11.947c-3.84,2.645-8.981,2.475-12.629-0.427
				l-47.68-37.632l-46.699,37.568c-1.941,1.557-4.309,2.347-6.677,2.347c-2.069,0-4.117-0.597-5.931-1.792
				c-3.883-2.603-5.632-7.403-4.309-11.861l17.685-60.245l-45.888-34.923c-3.648-2.773-5.12-7.552-3.648-11.904
				c1.451-4.352,5.525-7.253,10.112-7.253h56.32l18.901-56.704c2.901-8.704,17.344-8.704,20.224,0L285.077,320h56.32
				c4.565,0,8.64,2.923,10.112,7.253C352.896,331.584,351.445,336.384,347.797,339.157z"/>
		</g>
	</g>
</g>
</svg>