<?xml version="1.0" encoding="UTF-8"?>
<svg id="Layer_1" xmlns="http://www.w3.org/2000/svg" version="1.1" viewBox="0 0 800 738.47">
  <!-- Generator: Adobe Illustrator 30.5.1, SVG Export Plug-In . SVG Version: 2.1.4 Build 3)  -->
  <path d="M738.46,215.39H61.54c-8.34,0-15.55,3.04-21.64,9.13s-9.13,13.3-9.13,21.63v461.54c0,8.33,3.04,15.55,9.13,21.63,6.09,6.09,13.3,9.14,21.64,9.14h676.92c8.33,0,15.54-3.05,21.63-9.14,6.08-6.08,9.13-13.3,9.13-21.63V246.15c0-8.34-3.03-15.54-9.13-21.63-6.08-6.09-13.29-9.13-21.63-9.13ZM483.17,360.1c-6.09,6.09-13.3,9.13-21.63,9.13h-123.08c-8.33,0-15.54-3.04-21.63-9.13s-9.13-13.3-9.13-21.64,3.04-15.54,9.13-21.63c6.09-6.09,13.3-9.13,21.63-9.13h123.09c8.33,0,15.54,3.04,21.63,9.13,6.08,6.09,9.13,13.3,9.13,21.63s-3.05,15.55-9.14,21.64Z"/>
  <path d="M790.87,9.13c-6.09-6.09-13.3-9.13-21.63-9.13H30.77c-8.33,0-15.54,3.04-21.63,9.13C3.04,15.22,0,22.44,0,30.77v123.08c0,8.33,3.04,15.54,9.13,21.63,6.09,6.09,13.3,9.13,21.63,9.13h738.46c8.33,0,15.55-3.04,21.64-9.13,6.08-6.09,9.13-13.3,9.13-21.63V30.77c0-8.34-3.04-15.54-9.13-21.63Z"/>
</svg>