<?xml version="1.0" encoding="UTF-8"?>
<svg id="Icons" xmlns="http://www.w3.org/2000/svg" version="1.1" viewBox="0 0 32 32">
  <!-- Generator: Adobe Illustrator 30.4.0, SVG Export Plug-In . SVG Version: 2.1.4 Build 226)  -->
  <path d="M14,17.08H3c-.6,0-1,.4-1,1v11c0,.6.4,1,1,1h11c.6,0,1-.4,1-1v-11c0-.6-.4-1-1-1ZM8.5,27.08c-1.9,0-3.5-1.6-3.5-3.5s1.6-3.5,3.5-3.5,3.5,1.6,3.5,3.5-1.6,3.5-3.5,3.5Z"/>
  <path d="M29,17.08h-11c-.6,0-1,.4-1,1v11c0,.6.4,1,1,1h11c.6,0,1-.4,1-1v-11c0-.6-.4-1-1-1ZM27.2,24.28l-3,3c-.2.2-.5.3-.7.3s-.5-.1-.7-.3l-3-3c-.4-.4-.4-1,0-1.4l3-3c.4-.4,1-.4,1.4,0l3,3c.4.4.4,1,0,1.4Z"/>
  <path d="M21.5,1.92h-11c-.6,0-1,.4-1,1v11c0,.6.4,1,1,1h11c.6,0,1-.4,1-1V2.92c0-.6-.4-1-1-1ZM19.9,10.92c-.2.3-.5.5-.9.5h-6c-.4,0-.7-.2-.9-.5s-.2-.7,0-1l3-5c.4-.6,1.4-.6,1.8,0l3,5c.1.3.1.7,0,1Z"/>
</svg>