<?xml version="1.0" encoding="UTF-8"?>
<svg id="Layer_1" xmlns="http://www.w3.org/2000/svg" version="1.1" viewBox="0 0 800 800">
  <!-- Generator: Adobe Illustrator 30.4.0, SVG Export Plug-In . SVG Version: 2.1.4 Build 226)  -->
  <path d="M374.99,66.67c-140.61.14-213.36,2.65-259.52,48.81-46.15,46.15-48.67,118.91-48.81,259.52h163.78c-11.7-14.61-20.44-31.85-25.21-50.92-17.94-71.77,47.07-136.77,118.83-118.83,19.07,4.77,36.3,13.51,50.92,25.21V66.67Z"/>
  <path d="M66.67,424.99c.14,140.61,2.65,213.36,48.81,259.52,46.15,46.15,118.91,48.67,259.52,48.81v-262.54c-25.99,51.91-79.67,87.55-141.67,87.55-13.81,0-25-11.19-25-25s11.19-25,25-25c51.23,0,94.15-35.56,105.43-83.33H66.67Z"/>
  <path d="M424.99,733.32c140.61-.14,213.36-2.65,259.52-48.81,46.15-46.16,48.67-118.91,48.81-259.52h-272.09c11.29,47.78,54.21,83.33,105.44,83.33,13.81,0,25,11.19,25,25s-11.19,25-25,25c-62,0-115.68-35.64-141.67-87.55v262.54Z"/>
  <path d="M733.32,374.99c-.14-140.61-2.65-213.36-48.81-259.52-46.16-46.15-118.91-48.67-259.52-48.81v163.78c14.61-11.7,31.85-20.44,50.91-25.21,71.77-17.94,136.78,47.07,118.83,118.83-4.77,19.07-13.51,36.3-25.21,50.92h163.78Z"/>
  <path d="M311.95,253.75c37.05,9.26,63.04,42.55,63.04,80.74v40.5h-40.5c-38.19,0-71.48-25.99-80.74-63.04-8.79-35.15,23.05-66.99,58.2-58.2Z"/>
  <path d="M424.99,334.49v40.5h40.5c38.19,0,71.48-25.99,80.74-63.04,8.79-35.15-23.05-66.99-58.2-58.2-37.05,9.26-63.04,42.55-63.04,80.74Z"/>
</svg>